<svg xmlns="http://www.w3.org/2000/svg" width="137.816" height="137.824" viewBox="0 0 137.816 137.824">
  <g id="Icon_feather-check-circle" data-name="Icon feather-check-circle" transform="translate(-1.5 -1.49)">
    <path id="Trazado_1" data-name="Trazado 1" d="M70.419,139.315q-1.284,0-2.569-.048A68.913,68.913,0,1,1,98.453,7.46a6.264,6.264,0,1,1-5.1,11.444,56.379,56.379,0,0,0-70.243,82.184A56.379,56.379,0,0,0,126.787,70.434v-5.76a6.264,6.264,0,1,1,12.529,0v5.763a68.928,68.928,0,0,1-68.9,68.877Z" transform="translate(0 0)" fill="#ffc400"/>
    <path id="Trazado_2" data-name="Trazado 2" d="M37.057,79.734A6.264,6.264,0,0,1,32.628,77.9L13.835,59.107a6.264,6.264,0,0,1,8.859-8.859L37.055,64.609,95.269,6.337a6.264,6.264,0,1,1,8.863,8.855L41.489,77.9a6.264,6.264,0,0,1-4.43,1.837Z" transform="translate(33.351 9.559)" fill="#ffc400"/>
  </g>
</svg>
