<svg id="Capa_1" data-name="Capa 1" xmlns="http://www.w3.org/2000/svg" viewBox="0 0 944 293.33"><defs><style>.cls-1{fill:#fff;}.cls-2{fill:#e58800;}.cls-3{fill:#ba8000;}.cls-4{fill:#ffc400;}.cls-5{fill:#19b8dd;}.cls-6{fill:#0092b8;}</style></defs><path class="cls-1" d="M347.07,121.85a39.94,39.94,0,0,0-12.36-9.43,34.15,34.15,0,0,0-14.7-3.06,34.89,34.89,0,0,0-13.92,2.79A36,36,0,0,0,287,131.22a36.12,36.12,0,0,0,0,27.84,36,36,0,0,0,19.07,19.06,36.14,36.14,0,0,0,29.08-.52,35.39,35.39,0,0,0,11.9-9.17,3.11,3.11,0,0,1,1.17-1,2.94,2.94,0,0,1,1-.19,2.48,2.48,0,0,1,1.82.78,2.37,2.37,0,0,1,.79,1.69,3.09,3.09,0,0,1-1.05,2.21,63.33,63.33,0,0,1-6.7,6.31,37.59,37.59,0,0,1-6.89,4.43,32.15,32.15,0,0,1-7.81,2.6,48.55,48.55,0,0,1-9.43.84,40.33,40.33,0,0,1-15.94-3.18,40.9,40.9,0,0,1-21.86-21.86A40.88,40.88,0,0,1,291,116.19a42.3,42.3,0,0,1,13.08-8.78A39.53,39.53,0,0,1,320,104.15a45.38,45.38,0,0,1,9.43.91,33,33,0,0,1,7.87,2.74,38.82,38.82,0,0,1,7,4.48,75.41,75.41,0,0,1,6.83,6.31,2.5,2.5,0,0,1,0,3.65,2.48,2.48,0,0,1-1.82.78A3,3,0,0,1,347.07,121.85Z"/><path class="cls-1" d="M419.41,183.39a2.67,2.67,0,0,1-2.6,2.6H365.42a2.12,2.12,0,0,1-1.7-.78,2.76,2.76,0,0,1-.65-1.82v-76a3.5,3.5,0,0,0-.19-1.11,3.53,3.53,0,0,1-.2-1.11,1.38,1.38,0,0,1,.33-.91,1.75,1.75,0,0,1,1.36-.39h52.44a2.61,2.61,0,0,1,0,5.21H368.28v37.08h40.07a2.6,2.6,0,0,1,0,5.2H368.28v29.41h48.53a2.67,2.67,0,0,1,2.6,2.6Z"/><path class="cls-1" d="M470.42,120.55a28.29,28.29,0,0,0-8.27-8.4,21.58,21.58,0,0,0-11-2.79,22.35,22.35,0,0,0-6.7,1,19.41,19.41,0,0,0-5.92,3,16.68,16.68,0,0,0-4.3,4.75,11.56,11.56,0,0,0-1.69,6,9.84,9.84,0,0,0,1.89,6.05,20.25,20.25,0,0,0,4.68,4.49,32.74,32.74,0,0,0,6.05,3.32q3.25,1.37,6.12,2.27,4.43,1.56,9,3.58a45.68,45.68,0,0,1,8.39,4.82,24,24,0,0,1,6.24,6.57,16.45,16.45,0,0,1,2.54,8.58,18.07,18.07,0,0,1-1.88,8.72,21.58,21.58,0,0,1-5.67,7,27.18,27.18,0,0,1-8.58,4.68,35.25,35.25,0,0,1-19.52.59,30.24,30.24,0,0,1-7.35-3.06,23.2,23.2,0,0,1-5.59-4.49,19.26,19.26,0,0,1-3.45-5.27,7.07,7.07,0,0,1-.72-2.47,1.78,1.78,0,0,1,1-1.69,2.32,2.32,0,0,1,2-.39,2,2,0,0,1,1.5,1.3,15.15,15.15,0,0,0,2.8,4.49,20.31,20.31,0,0,0,4.62,3.84,27.48,27.48,0,0,0,6.24,2.79,25.36,25.36,0,0,0,7.68,1.11,27.56,27.56,0,0,0,7.94-1.17,23.81,23.81,0,0,0,7-3.39,17.19,17.19,0,0,0,5-5.46,13.15,13.15,0,0,0,1.76-7.16,12,12,0,0,0-2.15-6.44,22.48,22.48,0,0,0-5.07-5.2,38,38,0,0,0-6.71-4,54.28,54.28,0,0,0-7-2.73,90.08,90.08,0,0,1-9.24-3.45,38.85,38.85,0,0,1-7.61-4.36,18.79,18.79,0,0,1-5.21-5.79,15.46,15.46,0,0,1-1.88-7.74,16.29,16.29,0,0,1,2.08-8.13,21,21,0,0,1,5.4-6.31,27.27,27.27,0,0,1,24.46-4.43,27,27,0,0,1,6.44,3.06,26,26,0,0,1,5.08,4.36,37.72,37.72,0,0,1,3.9,5.2,1.91,1.91,0,0,1,.32,1.83,3.32,3.32,0,0,1-1.23,1.56,2.08,2.08,0,0,1-1.82.39A2.88,2.88,0,0,1,470.42,120.55Z"/><path class="cls-1" d="M491.36,186a2.67,2.67,0,0,1-2.6-2.6v-76.9a3.39,3.39,0,0,0-.13-1,1.37,1.37,0,0,1,0-.85,1,1,0,0,1,.65-.58,5.79,5.79,0,0,1,1.82-.2h20.95A39.53,39.53,0,0,1,528,107.15a41.56,41.56,0,0,1,21.92,21.92,40.6,40.6,0,0,1,0,31.88A42.08,42.08,0,0,1,541.07,174,41.14,41.14,0,0,1,528,182.81,40.33,40.33,0,0,1,512.05,186ZM548,145a34.1,34.1,0,0,0-2.86-13.92A36.74,36.74,0,0,0,526,112a34.17,34.17,0,0,0-13.92-2.86H494v71.69h18.08A34.8,34.8,0,0,0,526,178a36,36,0,0,0,11.39-7.68,37,37,0,0,0,7.74-11.38A34.17,34.17,0,0,0,548,145Z"/><path class="cls-1" d="M574.37,183.39a2.6,2.6,0,0,1-5.2,0V106.63a3.81,3.81,0,0,0-.13-1,1.37,1.37,0,0,1,0-.85,1,1,0,0,1,.65-.58,5.75,5.75,0,0,1,1.82-.2,2.79,2.79,0,0,1,2.15.78,2.65,2.65,0,0,1,.71,1.83Z"/><path class="cls-1" d="M624.46,180.79a30.51,30.51,0,0,0,10.61-1.89,33.82,33.82,0,0,0,9.3-5.14,30.14,30.14,0,0,0,7-7.61,23.94,23.94,0,0,0,3.58-9.43H632.4a2.61,2.61,0,0,1,0-5.21H658a2.67,2.67,0,0,1,1.7.85,2.53,2.53,0,0,1,.65,1.75v29.28a2.48,2.48,0,0,1-.78,1.82,2.53,2.53,0,0,1-3.65,0,2.48,2.48,0,0,1-.78-1.82v-15A18.71,18.71,0,0,1,651,175a32.71,32.71,0,0,1-7.16,5.66,38.49,38.49,0,0,1-9.17,3.9A36.82,36.82,0,0,1,624.46,186a39.34,39.34,0,0,1-15.8-3.18A38.5,38.5,0,0,1,596,174,41.22,41.22,0,0,1,587.58,161,41.7,41.7,0,0,1,584.52,145a40.59,40.59,0,0,1,12-28.95,42.3,42.3,0,0,1,13.08-8.78A39.49,39.49,0,0,1,625.51,104a45.45,45.45,0,0,1,9.43.91,33,33,0,0,1,7.87,2.74,38.82,38.82,0,0,1,7,4.48,74.17,74.17,0,0,1,6.83,6.32,2.6,2.6,0,0,1-1.82,4.42,3,3,0,0,1-2.21-1.17,40.25,40.25,0,0,0-12.36-9.44,34.29,34.29,0,0,0-14.7-3A35,35,0,0,0,611.58,112a36,36,0,0,0-19.06,19.07A34.89,34.89,0,0,0,589.73,145a36.56,36.56,0,0,0,9.95,25.3,33.3,33.3,0,0,0,11,7.68A33.87,33.87,0,0,0,624.46,180.79Z"/><path class="cls-1" d="M680,183.39a2.6,2.6,0,0,1-5.2,0V106.63a3.81,3.81,0,0,0-.13-1,1.37,1.37,0,0,1,0-.85,1,1,0,0,1,.65-.58,5.75,5.75,0,0,1,1.82-.2,2.79,2.79,0,0,1,2.15.78,2.65,2.65,0,0,1,.71,1.83Z"/><path class="cls-1" d="M751.71,106.49a2.67,2.67,0,0,1-2.6,2.61H722.18v74.29a2.61,2.61,0,0,1-5.21,0V109.1H690a2.61,2.61,0,0,1,0-5.21h59.07a2.67,2.67,0,0,1,2.6,2.6Z"/><path class="cls-1" d="M767.33,103.89a3.84,3.84,0,0,1,1.62.39,2.43,2.43,0,0,1,1.24,1.3l30.06,76.9a2.66,2.66,0,0,1-3.58,3.32,2.6,2.6,0,0,1-1.37-1.5l-8.07-20.43h-39l-7.94,20.43a2.58,2.58,0,0,1-1.36,1.5,2.53,2.53,0,0,1-2,.06,2.58,2.58,0,0,1-1.5-1.36,2.53,2.53,0,0,1-.06-2l29.66-76a1.77,1.77,0,0,0,0-1,1.53,1.53,0,0,1,0-.85,1,1,0,0,1,.59-.58A5.15,5.15,0,0,1,767.33,103.89Zm-17.05,54.78h35L767.72,114Z"/><path class="cls-1" d="M867.77,183.39a2.67,2.67,0,0,1-2.6,2.6h-52.7a2.11,2.11,0,0,1-1.69-.78,2.76,2.76,0,0,1-.65-1.82V106.63a3.42,3.42,0,0,0-.13-1,1.37,1.37,0,0,1,0-.85,1,1,0,0,1,.65-.58,5.83,5.83,0,0,1,1.82-.2,2.77,2.77,0,0,1,2.15.78,2.61,2.61,0,0,1,.72,1.83v74.16h49.83a2.67,2.67,0,0,1,2.6,2.6Z"/><path class="cls-2" d="M226.45,131.76l-10.63-10.63c.7,2.77,3.66,16.93-6.83,25.51l0,0-43.15,43.15s-10,5.16-17.34-.64V224a21.11,21.11,0,0,0,20.81-5.33l57.12-57.12a21.09,21.09,0,0,0,0-29.81Z"/><path class="cls-3" d="M148.52,103.59v20.67h17.34V103.51C165.15,103,156.4,97.39,148.52,103.59Z"/><path class="cls-4" d="M215.82,121.13,169.33,74.64a21.11,21.11,0,0,0-20.81-5.33v34.28c7.88-6.2,17.34-.08,17.34-.08L209,146.64C219.48,138.06,216.52,123.9,215.82,121.13Z"/><path class="cls-3" d="M165.86,189.83V141.19H148.52v48C155.87,195,164.17,190.84,165.86,189.83Z"/><path class="cls-5" d="M93.43,172.59l45.71,45.72V186l-39.3-39.3S87.72,158.78,93.43,172.59Z"/><path class="cls-6" d="M76.23,146.67a20.93,20.93,0,0,0,6.17,14.9l11,11c-5.71-13.81,6.41-25.92,6.41-25.92l39.3-39.3V75L82.4,131.76A21,21,0,0,0,76.23,146.67Z"/></svg>